# xmcd
#
# Track frame offsets:
#  150
#  35537
#  54907
#  135997
#  168165
#  185372
#
# Disc length: 3136 seconds
#
# Revision: 0
# Processed by: cddbd v1.4PL0 Copyright (c) Steve Scherf et al.
# Submitted via: AltoMP3_Maker 3.0
#
DISCID=410c3e06
DTITLE=Asaphe Borba - Louvores da Adhonep
DYEAR=1900
DGENRE=
TTITLE0=Medley 1 - vinde celebrar - Você e Eu
TTITLE1=Novo Som
TTITLE2=Medley 3 - 5 musicas
TTITLE3=Medley 4 - Come on a Celeb. - Brilha Jesus
TTITLE4=Mensagem da Cruz
TTITLE5=Medley 6 - Tu és Digno - Aleluia
EXTD=
EXTT0=
EXTT1=
EXTT2=
EXTT3=
EXTT4=
EXTT5=
PLAYORDER=
